<svg xmlns="http://www.w3.org/2000/svg" width="136" height="32" viewBox="0 0 136 32">
    <defs>
        <linearGradient id="prefix__a" x1="50%" x2="50%" y1="0%" y2="100%">
            <stop offset="0%" stop-color="#23A7FF"/>
            <stop offset="100%" stop-color="#0083DB"/>
        </linearGradient>
    </defs>
    <g fill="none" fill-rule="evenodd">
        <path fill="#3A3E42" d="M43.574 4.766L43.574 6.333 32.897 6.333 32.897 13.854 40.13 13.854 40.13 15.422 32.897 15.422 32.897 22.943 43.574 22.943 43.574 24.511 31.319 24.511 31.319 4.766zM55.149 11.574L50.436 24.511 48.245 24.511 43.574 11.574 45.241 11.574 49.334 22.923 53.468 11.574zM57.588 16.245c-.065.258-.112.55-.14.872h8.988c-.009-.129-.028-.272-.055-.43l-.029-.193c-.009-.046-.022-.092-.041-.139l-.014-.11c-.26-1.053-.763-1.86-1.507-2.423-.745-.563-1.694-.844-2.847-.844-1.154 0-2.103.281-2.848.844-.753.563-1.256 1.37-1.507 2.423zm10.48 2.298H57.436c.028.332.065.614.111.845.224 1.135.726 2.007 1.508 2.616.781.609 1.795.914 3.042.914 1.796 0 3.126-.554 3.991-1.662l1.452.707c-.54.803-1.284 1.426-2.233 1.869-.958.442-2.028.664-3.21.664-1.917 0-3.438-.572-4.563-1.716-1.117-1.154-1.69-2.718-1.717-4.694v-.139c0-2.02.548-3.617 1.647-4.79 1.097-1.171 2.59-1.758 4.48-1.758 1.627 0 2.972.453 4.032 1.357 1.07.905 1.731 2.16 1.983 3.765.064.425.102.86.11 1.302v.72zM74.719 11.565l.14-.027c.203-.037.413-.065.628-.083v1.578c-1.109.129-1.988.558-2.64 1.288-.65.72-1.031 1.694-1.144 2.92h-.027v7.255h-1.59v-13.07h1.59v2.534c.651-1.282 1.665-2.08 3.043-2.395M82.58 22.918c1.441 0 2.558-.434 3.349-1.301.79-.868 1.186-2.091 1.186-3.669v-.014c0-1.569-.396-2.787-1.186-3.656-.79-.866-1.908-1.3-3.35-1.3-1.442 0-2.558.434-3.35 1.3-.79.869-1.185 2.091-1.185 3.67 0 1.578.395 2.801 1.185 3.669.792.867 1.908 1.3 3.35 1.3zm4.535-18.302h1.591v19.88h-1.591v-2.534c-.651 1.283-1.666 2.077-3.043 2.382l-.139.027c-.428.084-.88.125-1.354.125-.474 0-.926-.041-1.353-.125l-.126-.027c-1.46-.296-2.6-1.01-3.42-2.146-.818-1.126-1.227-2.543-1.227-4.25 0-1.717.414-3.143 1.241-4.278.82-1.126 1.96-1.837 3.42-2.132l.126-.028c.427-.073.873-.11 1.34-.11.465 0 .906.037 1.325.11l.126.028c1.405.304 2.433 1.099 3.084 2.38V4.617zM96.897 22.918c1.442 0 2.558-.434 3.35-1.301.79-.868 1.185-2.091 1.185-3.669v-.014c0-1.569-.395-2.787-1.185-3.656-.792-.866-1.908-1.3-3.35-1.3-1.443 0-2.559.434-3.35 1.3-.79.869-1.186 2.091-1.186 3.67 0 1.578.396 2.801 1.186 3.669.791.867 1.907 1.3 3.35 1.3zm4.535-11.505h1.592v13.083h-1.592v-2.534c-.65 1.283-1.665 2.077-3.042 2.382l-.14.027c-.427.084-.879.125-1.353.125s-.926-.041-1.354-.125l-.126-.027c-1.46-.296-2.6-1.01-3.419-2.146-.819-1.126-1.228-2.543-1.228-4.25 0-1.717.414-3.143 1.242-4.278.819-1.126 1.959-1.837 3.42-2.132l.153-.028c.41-.073.847-.11 1.312-.11.465 0 .907.037 1.325.11l.127.028c1.405.304 2.432 1.099 3.083 2.38v-2.505zM114.841 11.413h1.591v14.51c0 1.845-.54 3.303-1.618 4.374-1.07 1.07-2.531 1.606-4.383 1.606-2.279 0-3.944-.78-4.996-2.34l1.451-.706c.763.978 1.945 1.468 3.545 1.468 1.396 0 2.48-.383 3.252-1.15.772-.766 1.158-1.85 1.158-3.253V22.6c-.38.59-.861 1.042-1.437 1.357-.735.359-1.568.539-2.499.539-.93 0-1.767-.185-2.511-.553-.958-.48-1.703-1.242-2.233-2.285-.53-1.052-.796-2.288-.796-3.71v-6.535h1.59v6.535c0 1.605.34 2.838 1.02 3.696.679.85 1.656 1.274 2.93 1.274 1.174 0 2.098-.364 2.778-1.094.67-.72 1.056-1.767 1.158-3.142v-7.269zM123.273 16.992c1.693 0 2.982.402 3.866 1.205.744.664 1.117 1.514 1.117 2.547 0 1.034-.373 1.888-1.117 2.561-.884.795-2.173 1.191-3.866 1.191-1.423 0-2.568-.29-3.434-.873-.743-.498-1.223-1.157-1.437-1.978l1.633-.14c.177.407.488.726.935.956.568.304 1.336.457 2.303.457 1.33 0 2.274-.282 2.833-.845.214-.203.367-.443.46-.72.065-.194.098-.396.098-.609 0-.212-.033-.415-.098-.609-.093-.277-.246-.517-.46-.72-.559-.554-1.503-.83-2.833-.83-1.618 0-2.852-.383-3.699-1.15-.706-.646-1.06-1.463-1.06-2.45 0-.988.354-1.8 1.06-2.436.847-.766 2.08-1.15 3.699-1.15 1.47 0 2.614.31 3.433.928.326.249.59.535.796.858.166.268.297.559.39.872l-1.66.125c-.177-.341-.47-.613-.88-.817-.53-.258-1.223-.388-2.08-.388-1.246 0-2.13.26-2.65.776-.196.194-.336.416-.42.665-.064.184-.097.373-.097.567 0 .203.033.393.098.568.083.258.223.48.418.664.521.517 1.405.775 2.652.775"/>
        <path fill="url(#prefix__a)" d="M23.388 16.566c.353-.193.715-.03.804.358.058.254.114.516.146.698.153.88.402 3.271.083 4.885-.229 1.156-.792 2.195-1.55 3.045-1.244 1.398-3.064 2.28-5.092 2.28-1.627 0-3.118-.567-4.288-1.513-.163-.131-.24-.343-.192-.546.754-3.263 3.05-5.915 6.059-7.276 1.136-.515 2.66-1.184 4.03-1.931zm-.434-6.228l.146.002c.275.022.483.062.687.17.051.027.1.057.145.09.611.406 1.013 1.097 1.013 1.881 0 .45-.133.87-.36 1.222-.088.135-.189.26-.302.374l-.009.008c-.232.232-.473.455-.724.667-.475.401-.97.79-1.519 1.088-.748.405-1.414.723-2.223 1.033-.462.158-.911.34-1.347.548-.82.392-1.588.876-2.292 1.436-1.001.797-1.88 1.744-2.572 2.823-.544.85-1.044 2.035-1.216 2.435-1.054 2.439-3.29 3.717-5.55 3.717-3.58 0-6.512-2.746-6.773-6.23 0 0-.354-3.046.69-6.054v-.005c.558-1.769 1.877-3.204 3.577-3.926.427-.181.877-.317 1.345-.403.377-.068.764-.105 1.16-.105.547 0 1.077.069 1.583.197l.04.01c1.08.28 2.126.647 3.128 1.092l.083.037.075.034c.528.235 1.067.446 1.618.636.83.291 1.722.451 2.652.451 1.62 0 3.126-.483 4.38-1.311.458-.303.882-.652 1.267-1.04.096-.097.19-.197.28-.3.039-.05.137-.148.18-.195.218-.238.591-.41.984-.38zM16.795 2.47c1.652 0 3.042 1.107 3.46 2.613.003 0 .004 0 .007.002.197.733.303 1.503.306 2.297v.035c0 .73-.087 1.44-.25 2.12l-.01-.01c-.32 1.543-1.648 2.72-3.27 2.828-.08.006-.16.008-.243.008-1.644 0-3.03-1.098-3.453-2.596l-.008.003c-.202-.75-.31-1.54-.31-2.353 0-.771.096-1.52.28-2.234l.006.002c.042-.17.096-.335.161-.495.533-1.302 1.82-2.22 3.324-2.22zM6.455.02c1.651 0 3.041 1.106 3.458 2.612l.008.002c.197.733.304 1.504.306 2.297v.035c0 .73-.086 1.44-.251 2.12l-.009-.01c-.32 1.544-1.647 2.72-3.27 2.828-.08.006-.16.008-.242.008C4.81 9.911 3.424 8.813 3 7.315l-.007.003c-.203-.75-.312-1.539-.312-2.353 0-.772.097-1.52.28-2.234l.008.002c.041-.17.095-.335.16-.495C3.665.936 4.952.018 6.456.018z"/>
        <path fill="#3A3E42" fill-rule="nonzero" d="M132.564 22.344v.862h-.5v-2.144c.197-.039.474-.065.83-.065.408 0 .592.065.75.157.12.092.211.261.211.47 0 .236-.184.419-.448.497v.027c.211.078.33.235.396.522.065.327.105.458.158.536h-.54c-.066-.078-.106-.274-.172-.523-.04-.235-.171-.34-.448-.34h-.237zm.013-.968v.615h.237c.277 0 .501-.092.501-.314 0-.196-.145-.327-.461-.327-.132 0-.224.013-.277.026zm.33-1.438c1.251 0 2.213.955 2.213 2.144 0 1.216-.962 2.17-2.213 2.17-1.24 0-2.228-.954-2.228-2.17 0-1.19.989-2.144 2.228-2.144zm0 .432c-.962 0-1.674.77-1.674 1.712 0 .954.712 1.713 1.687 1.713.948 0 1.647-.759 1.647-1.7 0-.954-.699-1.725-1.66-1.725z"/>
    </g>
</svg>
